<?xml version="1.0" encoding="UTF-8"?>
<svg id="_Слой_2" data-name="Слой 2" xmlns="http://www.w3.org/2000/svg" viewBox="0 0 471 659">
  <g id="_Слой_1-2" data-name="Слой 1">
    <path d="m470.9,426c-.8-111.1-78.4-203.9-182.3-227.8,0,0-.1,0-.2,0-12.3-3.4-24.9-5.8-37.8-7.2,0,0-.1,0-.2,0-5.7-.6-11.4-1-17.2-1.2-2.5-.1-5-.1-7.6-.2-14.2.7-28.2,2.5-41.6,5.6-.5,0-.8-.1-1-.3v-4s0,0,0,0c0,0,0,0,0,0v-60.6c7.1-36.7,40.6-64,79.9-61.5,38.9,2.5,70.3,34.9,71.4,73.9.4,14.6-3.3,28.3-10,40.1,16.8,6.3,32.6,14.5,47.2,24.5,17.5-30.5,23.1-68.6,10.5-108.2-12.1-37.8-41.7-67.9-79.3-80.4-44.5-14.8-87.4-6.4-119.6,16.2V0h-55.6v217.5c-52.5,31.1-87.6,88.4-87.6,153.9s5.3,49.9,15,71.9c-.4-4.9-.6-9.8-.6-14.8,0-14.1,1.6-27.9,4.8-41.1,12.2-38.5,36.5-71.6,68.5-94.7v182.9s55.6-28.5,55.6-86.2v-124.2c.8-.2,1.6-.5,2.4-.7,2.1-.6,4.2-1.1,6.2-1.6,14.4-3.6,29.4-5.5,44.9-5.5h1c52.8.3,100.3,22.5,134,58,3.6,3.7,7,7.7,10.3,11.7,5.7,8.6,10.7,17.7,14.8,27.3,6.2,14.2,10.6,29.4,12.9,45.3,1.3,8.5,1.9,17.3,1.9,26.2s-1.2,24.5-3.6,36.1c0,0,0,.1,0,.2-.3,1.6-.7,3.2-1.1,4.8-.4,1.6-.8,3.2-1.2,4.7-.4,1.6-.8,3.1-1.3,4.7-2.8,9.2-6.3,18.2-10.4,26.7-.6,1.2-1.2,2.5-1.9,3.7-10.4,20.3-24.7,38.4-41.8,53.2-4.8,4.2-9.9,8.1-15.1,11.8-13.7,9.5-28.8,17.2-45,22.6-17.8,6-37,9.3-56.9,9.3s-23.8-1.2-35.2-3.5c-4.7-.9-9.2-2-13.7-3.3,0,0,0,0-.1,0-12.4-3.5-24.2-8.4-35.3-14.4-6.1-3.2-12.1-6-17.7-9.9-1.4-.9-3.9-2.6-5.2-3.6-.1,0,0,0,0,0-3-2.2-6-4.2-9.1-6.2-8.5-5.5-27.2-19.9-43.7-41-25.7-32.7-47.8-83.5-53.8-149.4,0,0,0-.2,0-.2v-1.9c0-19.3,2.3-38.2,6.7-56.2C9.3,346.2,0,382.9,0,421.8c0,68.4,29,130.1,75.3,173.3,2.2,2.1,4.4,4.1,6.7,6,.1.1.2.2.4.3,36.6,31.6,83,52.2,134,56.6,6.9.6,13.8.9,20.9.9,52.5,0,101-17,140.3-45.9,0,0,.2-.1.2-.2,3-1.9,5.7-3.9,8.3-5.7.1,0,.2-.2.4-.2,0,0,0,0,0,0h.1c16.4-12.2,24.6-22.4,24.6-22.4,9.1-10.2,17.3-21.1,24.5-32.8,12.7-20.3,22.3-42.7,28.2-66.6.7-2.8,1.4-5.6,1.9-8.4,3.4-15.8,5.1-32.2,5.1-49s0-1.1,0-1.7ZM19.1,372.5c0,.3-.1.7-.2,1,0,.2,0,.5-.1.8v-.2c0-.1,0-.2,0-.3,0-.1,0-.2,0-.3,0-.2,0-.4,0-.6,0-.2,0-.3.1-.5,0-.1,0-.3,0-.4s0-.2,0-.3v.7Z"/>
  </g>
</svg>